<?xml version="1.0" encoding="UTF-8"?>
<svg id="Layer_1" xmlns="http://www.w3.org/2000/svg" version="1.1" viewBox="0 0 736.73 751.81">
  <!-- Generator: Adobe Illustrator 29.4.0, SVG Export Plug-In . SVG Version: 2.1.0 Build 152)  -->
  <defs>
    <style>
      .st0 {
        fill: #3d1466;
      }
    </style>
  </defs>
  <path class="st0" d="M561.83,570.17h-262.18l-139.28-137.64h124.45l-.11-.11c1.58.08,3.16.11,4.75.11l272.36.11c38.38,0,69.59,30.85,69.59,68.76s-31.21,68.76-69.59,68.76M200.55,337.74v6.95c0,1.54.04,3.08.11,4.64-34.15-33.77-70.21-69.42-76.12-75.27-12.4-12.23-19.22-28.59-19.22-46.01v-6.95c0-36,29.65-65.29,66.09-65.29l276.9-.1,95.46,94.2h-254.29c-49.03,0-88.93,39.4-88.93,87.83M349.72,410h-39.38l-34.88-34.48h39.35l34.9,34.48h.01ZM321.03,341.43h39.35l69.46,68.61h-39.38l-69.43-68.61h0ZM509.99,410.08h-39.38l-103.99-102.73h39.35l104.01,102.73ZM561.83,410.11h-11.41l-139.09-137.64h187.62l-141.2-139.3-286.34.1c-49.03,0-88.93,39.4-88.93,87.83v6.95c0,23.46,9.21,45.46,25.92,61.99,8.82,8.71,84.81,83.81,121.35,119.96h-124.48l184.91,182.74h271.63c50.97,0,92.43-40.96,92.43-91.31s-41.46-91.31-92.43-91.31"/>
</svg>